<svg width="197" height="152" viewBox="0 0 197 152" fill="none" xmlns="http://www.w3.org/2000/svg">
<path d="M80.6881 5.49153L80.6889 5.49524C80.8209 6.11099 81.0333 6.39284 81.3567 6.55061C81.7349 6.73507 82.3607 6.80103 83.4483 6.70264C85.1899 6.4992 91.7127 6.29973 97.9921 6.20005L97.9948 6.20003C107.618 6.09978 110.879 6.40046 117.151 8.42323C129.826 12.347 137.896 17.1892 147.452 26.6445C156.708 35.8001 162.655 45.6729 165.98 57.0598L165.981 57.0626C166.43 58.6353 166.807 59.85 167.157 60.7764C167.509 61.7097 167.821 62.3108 168.125 62.6843C168.413 63.0381 168.678 63.1689 168.97 63.1996C169.296 63.234 169.718 63.1497 170.327 62.9308C170.699 62.79 171.016 62.4118 171.184 61.6211C171.353 60.8293 171.345 59.7213 171.143 58.3216C170.739 55.5305 169.581 51.7245 167.739 47.2931C154.427 15.6028 120.946 -3.37158 87.1736 1.49456C84.2105 1.94662 82.4449 2.41182 81.4876 3.04253C81.0306 3.34361 80.7869 3.66469 80.671 4.02274C80.5511 4.39311 80.5484 4.863 80.6881 5.49153Z" fill="white" stroke="black"/>
<path d="M168.18 14.4746C178.426 26.4292 184.663 38.0952 188.683 52.9691C190.299 58.8808 191.1 67.5559 191.1 76.225C191.1 84.8951 190.299 93.6195 188.683 99.6299L188.683 99.63C187.271 104.874 184.556 111.506 181.435 117.761C178.315 124.013 174.771 129.925 171.688 133.716L171.688 133.716L171.685 133.719C171.056 134.479 170.472 135.184 169.929 135.839C168.399 137.684 167.201 139.13 166.274 140.274C165.013 141.832 164.277 142.804 163.893 143.454C163.497 144.124 163.576 144.285 163.603 144.338C163.635 144.402 163.704 144.483 163.861 144.624C163.905 144.663 163.962 144.712 164.026 144.767C164.151 144.874 164.303 145.004 164.443 145.136L164.448 145.141L164.454 145.146C164.841 145.534 165.344 145.819 165.836 145.973C166.336 146.128 166.76 146.128 167.018 146.034C167.226 145.948 167.522 145.761 167.904 145.456C168.284 145.153 168.726 144.75 169.221 144.258C170.209 143.274 171.388 141.95 172.676 140.383C175.251 137.249 178.24 133.164 180.98 128.928L180.98 128.928C204.557 92.5184 200.477 42.6688 171.331 10.7374C168.974 8.18044 167.397 6.68687 166.245 6.00529C165.677 5.66878 165.266 5.56398 164.953 5.58342C164.655 5.60194 164.369 5.73793 164.054 6.05356L164.047 6.05966L164.041 6.06554C163.744 6.34259 163.592 6.63899 163.559 6.99855C163.524 7.37697 163.618 7.87433 163.919 8.54582C164.524 9.89787 165.879 11.7739 168.18 14.4746ZM168.18 14.4746L167.8 14.8M168.18 14.4746C168.18 14.475 168.18 14.4754 168.181 14.4758L167.8 14.8M167.8 14.8C178 26.7 184.2 38.3 188.2 53.1C191.4 64.8 191.4 87.6 188.2 99.5M167.8 14.8C163.2 9.40001 162.2 7.10001 163.7 5.70001C165.2 4.20001 167 5.3 171.7 10.4L188.2 99.5M188.2 99.5C185.4 109.9 177.4 125.9 171.3 133.4C164.258 141.909 162.758 143.584 163.13 144.505C163.265 144.839 163.647 145.074 164.1 145.5C165 146.4 166.4 146.8 167.2 146.5L188.2 99.5Z" fill="white" stroke="black"/>
<path d="M17.2115 131.916L17.2125 131.917C19.6959 135.543 22.7528 139.221 25.4341 141.99C26.7755 143.374 28.0141 144.522 29.0332 145.32C29.5434 145.72 29.9885 146.023 30.3564 146.225C30.7406 146.435 30.981 146.5 31.1 146.5C32.0121 146.5 32.5291 146.321 32.787 146.086C33.0063 145.887 33.1332 145.554 32.9987 144.93C32.8617 144.295 32.4665 143.449 31.7649 142.381C31.0681 141.32 30.0906 140.07 28.8245 138.63L28.8244 138.63L28.8179 138.622C26.1165 135.421 22.5017 130.804 20.8818 128.274C-2.4391 93.4894 0.573055 45.6416 28.025 14.7693C29.2407 13.3798 30.18 12.1748 30.8514 11.1443C31.527 10.1071 31.911 9.27664 32.0485 8.63303C32.1833 8.00247 32.0725 7.61107 31.8372 7.34616C31.5801 7.05681 31.085 6.81424 30.2343 6.69568C29.6358 6.62218 28.8977 6.84747 27.7644 7.76381C26.6309 8.68025 25.183 10.2216 23.186 12.6178C12.9357 25.1575 5.87085 39.6859 2.38806 55.2086C0.900017 61.955 0.325565 70.7853 0.599754 79.5469C0.873953 88.3088 1.99561 96.9622 3.87914 103.357C6.7667 112.915 12.3457 124.866 17.2115 131.916Z" fill="white" stroke="black"/>
<path d="M50.3 75.9979L50.3 75.9989C50.399 118.465 99.7829 140.137 131.062 111.531C150.948 93.2277 151.45 61.2556 132.146 41.8527C121.755 31.4626 104.816 25.921 91.0822 28.1932C67.3194 32.1537 50.201 52.2478 50.3 75.9979ZM108.625 34.0158L108.626 34.0161C124.201 38.0617 135.937 49.7981 140.083 65.3705C146.155 87.8377 132.296 111.911 109.73 117.983C84.7388 124.761 59.9564 108.668 55.5074 82.7857C50.2443 52.923 79.178 26.4265 108.625 34.0158Z" fill="white" stroke="black"/>
<path d="M102.427 45.9393L102.428 45.941C106.874 53.2818 104.092 63.8935 96.6497 68.1332C87.2696 73.5947 75.4054 68.7518 72.6178 58.3324C72.3433 57.3596 72.0897 56.7618 71.8521 56.4624C71.7398 56.3208 71.6675 56.2932 71.643 56.2874C71.6274 56.2838 71.5736 56.274 71.4502 56.3454C71.1669 56.5092 70.7602 56.9578 70.2034 57.8351C69.6612 58.6895 69.0204 59.8773 68.2472 61.4236L68.2466 61.4249C61.2571 75.3053 65.2895 92.6502 77.7108 102.508L77.712 102.509C90.9033 113.043 111.207 111.372 122.732 98.8612L122.734 98.8596C126.009 95.3361 128.061 92.368 129.305 88.9299C130.551 85.4854 131 81.5282 131 76C131 71.9494 130.899 69.4135 130.545 67.373C130.194 65.3504 129.59 63.7986 128.553 61.7236L128.55 61.718C127.03 58.5798 124.542 55.2741 121.671 52.3903C118.799 49.5065 115.571 47.0713 112.587 45.6525C110.279 44.5721 107.116 43.5823 104.528 43.0003C103.232 42.709 102.103 42.525 101.31 42.4788C100.977 42.4595 100.73 42.4662 100.562 42.4894C100.578 42.5321 100.597 42.5798 100.619 42.6327C100.713 42.8585 100.853 43.151 101.031 43.4951C101.387 44.1816 101.881 45.0459 102.427 45.9393ZM104.872 79.0348L104.873 79.039C105.802 81.7717 104.649 84.2267 102.764 85.479C100.876 86.7333 98.2307 86.7908 96.244 84.7511C95.1938 83.6995 94.6313 82.2018 94.5508 80.7527C94.4705 79.3076 94.8668 77.8261 95.8464 76.8464C96.2924 76.4005 97.0484 76.0723 97.8574 75.8765C98.6819 75.6771 99.639 75.5962 100.552 75.7027C101.697 75.8075 102.602 76.0741 103.319 76.6299C104.038 77.1874 104.506 77.9883 104.872 79.0348Z" fill="white" stroke="black"/>
<path d="M24.8743 90.5581L24.8714 90.5669L24.8682 90.5756C24.8591 90.5998 24.8396 90.6827 24.833 90.8538C24.8268 91.0152 24.8329 91.2226 24.8531 91.4742C24.8933 91.9766 24.9869 92.6231 25.1287 93.3692C25.412 94.8597 25.8816 96.7144 26.4756 98.5458L26.4759 98.5467C36.1147 128.457 61.644 148.817 92.6375 151.201C100.062 151.749 106.333 151.447 110.543 150.524C112.657 150.061 114.196 149.452 115.106 148.757C115.556 148.413 115.825 148.069 115.952 147.738C116.074 147.42 116.08 147.076 115.935 146.685C115.871 146.535 115.753 146.391 115.426 146.262C115.068 146.119 114.497 146.011 113.579 145.949C111.749 145.826 108.73 145.899 103.723 146.1C95.9524 146.5 89.9579 146.276 84.2903 145.153C78.6203 144.029 73.3022 142.01 66.8792 138.849L66.8764 138.847C59.2271 135.023 55.7835 132.591 49.1464 125.954C39.9938 116.801 35.4518 109.535 31.4265 97.6605L31.4257 97.6581C30.3739 94.5027 29.6128 92.5242 28.9164 91.3115C28.2312 90.1182 27.6701 89.7705 27.0416 89.6966L27.0297 89.6952L27.0178 89.6932C26.5071 89.6081 26.0057 89.6744 25.6123 89.8459C25.2166 90.0183 24.9679 90.2776 24.8743 90.5581Z" fill="white" stroke="black"/>
</svg>
