<svg width="328" height="41" viewBox="0 0 328 41" fill="none" xmlns="http://www.w3.org/2000/svg">
<mask id="path-1-outside-1_103_24" maskUnits="userSpaceOnUse" x="88.1727" y="1" width="18" height="38" fill="black">
<rect fill="white" x="88.1727" y="1" width="18" height="38"/>
<path d="M96.3 2.7C95.5 3 95 4.8 95 7.1C95 10.8 94.8 11 91.9 11C89.9 11 89 11.4 89.2 12.2C89.5 12.9 90.7 13.5 92.1 13.5C94.5 13.5 94.5 13.7 95 24.8C95.5 37.2 96 38 101.8 38C106.2 38 106.2 35.2 101.8 34.8L98.5 34.5V24V13.5H101.8C103.7 13.5 105 13 105 12.3C105 11.5 103.7 11 101.6 11C98.2 11 98.1 10.9 97.8 6.7C97.6 3.7 97.1 2.5 96.3 2.7Z"/>
</mask>
<path d="M96.3 2.7C95.5 3 95 4.8 95 7.1C95 10.8 94.8 11 91.9 11C89.9 11 89 11.4 89.2 12.2C89.5 12.9 90.7 13.5 92.1 13.5C94.5 13.5 94.5 13.7 95 24.8C95.5 37.2 96 38 101.8 38C106.2 38 106.2 35.2 101.8 34.8L98.5 34.5V24V13.5H101.8C103.7 13.5 105 13 105 12.3C105 11.5 103.7 11 101.6 11C98.2 11 98.1 10.9 97.8 6.7C97.6 3.7 97.1 2.5 96.3 2.7Z" fill="white"/>
<path d="M96.3 2.7C95.5 3 95 4.8 95 7.1C95 10.8 94.8 11 91.9 11C89.9 11 89 11.4 89.2 12.2C89.5 12.9 90.7 13.5 92.1 13.5C94.5 13.5 94.5 13.7 95 24.8C95.5 37.2 96 38 101.8 38C106.2 38 106.2 35.2 101.8 34.8L98.5 34.5V24V13.5H101.8C103.7 13.5 105 13 105 12.3C105 11.5 103.7 11 101.6 11C98.2 11 98.1 10.9 97.8 6.7C97.6 3.7 97.1 2.5 96.3 2.7Z" stroke="black" stroke-width="2" mask="url(#path-1-outside-1_103_24)"/>
<mask id="path-2-outside-2_103_24" maskUnits="userSpaceOnUse" x="139.048" y="1" width="19" height="38" fill="black">
<rect fill="white" x="139.048" y="1" width="19" height="38"/>
<path d="M147.7 2.7C147.3 3 147 5.1 147 7.2C147 10.8 146.8 11 144 11C140.2 11 140 12.8 143.8 13.2L146.5 13.5L147 24.8C147.5 37 148 38 153.3 38C155 38 156 37.5 156 36.6C156 35.7 154.8 35 153.3 34.8L150.5 34.5V24V13.5L153.8 13.2C158.1 12.8 157.9 11 153.5 11C150 11 150 11 150 6.5C150 2.3 149.3 1.1 147.7 2.7Z"/>
</mask>
<path d="M147.7 2.7C147.3 3 147 5.1 147 7.2C147 10.8 146.8 11 144 11C140.2 11 140 12.8 143.8 13.2L146.5 13.5L147 24.8C147.5 37 148 38 153.3 38C155 38 156 37.5 156 36.6C156 35.7 154.8 35 153.3 34.8L150.5 34.5V24V13.5L153.8 13.2C158.1 12.8 157.9 11 153.5 11C150 11 150 11 150 6.5C150 2.3 149.3 1.1 147.7 2.7Z" fill="white"/>
<path d="M147.7 2.7C147.3 3 147 5.1 147 7.2C147 10.8 146.8 11 144 11C140.2 11 140 12.8 143.8 13.2L146.5 13.5L147 24.8C147.5 37 148 38 153.3 38C155 38 156 37.5 156 36.6C156 35.7 154.8 35 153.3 34.8L150.5 34.5V24V13.5L153.8 13.2C158.1 12.8 157.9 11 153.5 11C150 11 150 11 150 6.5C150 2.3 149.3 1.1 147.7 2.7Z" stroke="black" stroke-width="2" mask="url(#path-2-outside-2_103_24)"/>
<mask id="path-3-outside-3_103_24" maskUnits="userSpaceOnUse" x="310" y="0" width="18" height="39" fill="black">
<rect fill="white" x="310" width="18" height="39"/>
<path d="M317.5 3.2C317.3 3.9 317 5.8 316.8 7.5C316.6 9.9 316 10.6 313.8 10.8C312.2 11 311 11.5 311 12C311 12.5 312.2 13 313.8 13.2L316.5 13.5L316.8 24.5C317.1 36.6 317.8 38 323.2 38C326.9 38 327 35.2 323.3 34.8L320.5 34.5L320.2 23.7L319.9 13H323.5C325.4 13 327 12.5 327 12C327 11.4 325.4 11 323.5 11C320 11 320 11 320 6.5C320 2.3 318.5 0.399999 317.5 3.2Z"/>
</mask>
<path d="M317.5 3.2C317.3 3.9 317 5.8 316.8 7.5C316.6 9.9 316 10.6 313.8 10.8C312.2 11 311 11.5 311 12C311 12.5 312.2 13 313.8 13.2L316.5 13.5L316.8 24.5C317.1 36.6 317.8 38 323.2 38C326.9 38 327 35.2 323.3 34.8L320.5 34.5L320.2 23.7L319.9 13H323.5C325.4 13 327 12.5 327 12C327 11.4 325.4 11 323.5 11C320 11 320 11 320 6.5C320 2.3 318.5 0.399999 317.5 3.2Z" fill="white"/>
<path d="M317.5 3.2C317.3 3.9 317 5.8 316.8 7.5C316.6 9.9 316 10.6 313.8 10.8C312.2 11 311 11.5 311 12C311 12.5 312.2 13 313.8 13.2L316.5 13.5L316.8 24.5C317.1 36.6 317.8 38 323.2 38C326.9 38 327 35.2 323.3 34.8L320.5 34.5L320.2 23.7L319.9 13H323.5C325.4 13 327 12.5 327 12C327 11.4 325.4 11 323.5 11C320 11 320 11 320 6.5C320 2.3 318.5 0.399999 317.5 3.2Z" stroke="black" stroke-width="2" mask="url(#path-3-outside-3_103_24)"/>
<mask id="path-4-outside-4_103_24" maskUnits="userSpaceOnUse" x="0" y="1.63957" width="31" height="39" fill="black">
<rect fill="white" y="1.63957" width="31" height="39"/>
<path d="M2.4 4.5C1.3 7.2 3.1 8 10.6 8H18V19.4C18 30.6 17.9 30.9 15.4 32.9C11.7 35.8 9.4 35.5 6.8 32C4.4 28.8 1 28 1 30.7C1 33.4 5.8 38.8 8.9 39.5C12.4 40.2 17.7 38.2 20.5 35C22.2 33.1 22.5 31.1 22.9 20.4C23.2 8.3 23.3 8 25.5 8C28.1 8 30.5 5.6 29.5 4C29.1 3.4 23.8 3 15.9 3C5.5 3 2.8 3.3 2.4 4.5Z"/>
</mask>
<path d="M2.4 4.5C1.3 7.2 3.1 8 10.6 8H18V19.4C18 30.6 17.9 30.9 15.4 32.9C11.7 35.8 9.4 35.5 6.8 32C4.4 28.8 1 28 1 30.7C1 33.4 5.8 38.8 8.9 39.5C12.4 40.2 17.7 38.2 20.5 35C22.2 33.1 22.5 31.1 22.9 20.4C23.2 8.3 23.3 8 25.5 8C28.1 8 30.5 5.6 29.5 4C29.1 3.4 23.8 3 15.9 3C5.5 3 2.8 3.3 2.4 4.5Z" fill="white"/>
<path d="M2.4 4.5C1.3 7.2 3.1 8 10.6 8H18V19.4C18 30.6 17.9 30.9 15.4 32.9C11.7 35.8 9.4 35.5 6.8 32C4.4 28.8 1 28 1 30.7C1 33.4 5.8 38.8 8.9 39.5C12.4 40.2 17.7 38.2 20.5 35C22.2 33.1 22.5 31.1 22.9 20.4C23.2 8.3 23.3 8 25.5 8C28.1 8 30.5 5.6 29.5 4C29.1 3.4 23.8 3 15.9 3C5.5 3 2.8 3.3 2.4 4.5Z" stroke="black" stroke-width="2" mask="url(#path-4-outside-4_103_24)"/>
<mask id="path-5-outside-5_103_24" maskUnits="userSpaceOnUse" x="110.212" y="2" width="27" height="38" fill="black">
<rect fill="white" x="110.212" y="2" width="27" height="38"/>
<path d="M120.3 4.1C116.5 5.2 112 10.3 112 13.4C112 17.6 115.6 20.8 121.8 22.1C128.4 23.6 132.2 26.7 131.3 29.9C130.1 34.6 121.7 35.2 116.4 31.1C114 29.2 113.5 29.1 112.2 30.4C110.9 31.7 110.9 32.1 112.1 33.6C114.1 36.1 121 39 124.8 39C128.8 39 133.6 36.7 135 34.1C135.5 33 136 30.6 136 28.6C136 23.3 132.7 20.2 125.1 18.2C117.3 16.1 115.5 14 118.8 10.8C120.7 8.8 122 8.5 127.5 8.7C133.2 8.9 134 8.7 134 7.1C134 3.7 126.9 2.2 120.3 4.1Z"/>
</mask>
<path d="M120.3 4.1C116.5 5.2 112 10.3 112 13.4C112 17.6 115.6 20.8 121.8 22.1C128.4 23.6 132.2 26.7 131.3 29.9C130.1 34.6 121.7 35.2 116.4 31.1C114 29.2 113.5 29.1 112.2 30.4C110.9 31.7 110.9 32.1 112.1 33.6C114.1 36.1 121 39 124.8 39C128.8 39 133.6 36.7 135 34.1C135.5 33 136 30.6 136 28.6C136 23.3 132.7 20.2 125.1 18.2C117.3 16.1 115.5 14 118.8 10.8C120.7 8.8 122 8.5 127.5 8.7C133.2 8.9 134 8.7 134 7.1C134 3.7 126.9 2.2 120.3 4.1Z" fill="white"/>
<path d="M120.3 4.1C116.5 5.2 112 10.3 112 13.4C112 17.6 115.6 20.8 121.8 22.1C128.4 23.6 132.2 26.7 131.3 29.9C130.1 34.6 121.7 35.2 116.4 31.1C114 29.2 113.5 29.1 112.2 30.4C110.9 31.7 110.9 32.1 112.1 33.6C114.1 36.1 121 39 124.8 39C128.8 39 133.6 36.7 135 34.1C135.5 33 136 30.6 136 28.6C136 23.3 132.7 20.2 125.1 18.2C117.3 16.1 115.5 14 118.8 10.8C120.7 8.8 122 8.5 127.5 8.7C133.2 8.9 134 8.7 134 7.1C134 3.7 126.9 2.2 120.3 4.1Z" stroke="black" stroke-width="2" mask="url(#path-5-outside-5_103_24)"/>
<mask id="path-6-outside-6_103_24" maskUnits="userSpaceOnUse" x="288" y="1.89822" width="18" height="38" fill="black">
<rect fill="white" x="288" y="1.89822" width="18" height="38"/>
<path d="M289 5C289 6.5 289.9 7.2 292 7.6L295 8.2V20.6V33H292C289.7 33 289 33.4 289 35C289 37.4 291.8 38.2 299.1 37.8C303.8 37.5 304.5 37.2 304.8 35.3C305.1 33.6 304.6 33.1 302.3 32.8L299.5 32.5L299.2 20.4L298.9 8.3L302 7.7C304.1 7.2 305 6.5 305 5C305 3.2 304.4 3 297 3C289.6 3 289 3.2 289 5Z"/>
</mask>
<path d="M289 5C289 6.5 289.9 7.2 292 7.6L295 8.2V20.6V33H292C289.7 33 289 33.4 289 35C289 37.4 291.8 38.2 299.1 37.8C303.8 37.5 304.5 37.2 304.8 35.3C305.1 33.6 304.6 33.1 302.3 32.8L299.5 32.5L299.2 20.4L298.9 8.3L302 7.7C304.1 7.2 305 6.5 305 5C305 3.2 304.4 3 297 3C289.6 3 289 3.2 289 5Z" fill="white"/>
<path d="M289 5C289 6.5 289.9 7.2 292 7.6L295 8.2V20.6V33H292C289.7 33 289 33.4 289 35C289 37.4 291.8 38.2 299.1 37.8C303.8 37.5 304.5 37.2 304.8 35.3C305.1 33.6 304.6 33.1 302.3 32.8L299.5 32.5L299.2 20.4L298.9 8.3L302 7.7C304.1 7.2 305 6.5 305 5C305 3.2 304.4 3 297 3C289.6 3 289 3.2 289 5Z" stroke="black" stroke-width="2" mask="url(#path-6-outside-6_103_24)"/>
<mask id="path-7-outside-7_103_24" maskUnits="userSpaceOnUse" x="62.075" y="8.56024" width="24" height="31" fill="black">
<rect fill="white" x="62.075" y="8.56024" width="24" height="31"/>
<path d="M66.4 12.3C63.2 15.1 62.8 19.7 65.6 21.7C66.7 22.5 70 23.8 73 24.7C79.2 26.4 82 28.4 82 31.1C82 33.6 78.2 36 74.4 36C71 36 66 32.7 66 30.4C66 29.6 65.3 29 64.5 29C62.6 29 62.6 32 64.5 34.7C67.7 39.3 79.1 39.9 83.1 35.9C84.2 34.8 85 32.6 85 30.6C85 26.4 82.8 24.6 75 22.3C68.6 20.5 67 19.4 67 16.9C67 12.5 76.6 11.4 79.8 15.5C81.8 18 84 18.8 84 17.1C84 10.7 72.1 7.50001 66.4 12.3Z"/>
</mask>
<path d="M66.4 12.3C63.2 15.1 62.8 19.7 65.6 21.7C66.7 22.5 70 23.8 73 24.7C79.2 26.4 82 28.4 82 31.1C82 33.6 78.2 36 74.4 36C71 36 66 32.7 66 30.4C66 29.6 65.3 29 64.5 29C62.6 29 62.6 32 64.5 34.7C67.7 39.3 79.1 39.9 83.1 35.9C84.2 34.8 85 32.6 85 30.6C85 26.4 82.8 24.6 75 22.3C68.6 20.5 67 19.4 67 16.9C67 12.5 76.6 11.4 79.8 15.5C81.8 18 84 18.8 84 17.1C84 10.7 72.1 7.50001 66.4 12.3Z" fill="white"/>
<path d="M66.4 12.3C63.2 15.1 62.8 19.7 65.6 21.7C66.7 22.5 70 23.8 73 24.7C79.2 26.4 82 28.4 82 31.1C82 33.6 78.2 36 74.4 36C71 36 66 32.7 66 30.4C66 29.6 65.3 29 64.5 29C62.6 29 62.6 32 64.5 34.7C67.7 39.3 79.1 39.9 83.1 35.9C84.2 34.8 85 32.6 85 30.6C85 26.4 82.8 24.6 75 22.3C68.6 20.5 67 19.4 67 16.9C67 12.5 76.6 11.4 79.8 15.5C81.8 18 84 18.8 84 17.1C84 10.7 72.1 7.50001 66.4 12.3Z" stroke="black" stroke-width="2" mask="url(#path-7-outside-7_103_24)"/>
<mask id="path-8-outside-8_103_24" maskUnits="userSpaceOnUse" x="162" y="9" width="18" height="30" fill="black">
<rect fill="white" x="162" y="9" width="18" height="30"/>
<path d="M168.8 12.7C166.1 15.4 166 15.4 166 13.2C166 11.9 165.4 11 164.5 11C163.2 11 163 13.2 163 24.5C163 35.8 163.2 38 164.5 38C165.7 38 166 36.6 166 31.1C166 21.9 166.8 18.5 169.6 15.4C171.5 13.5 172.8 12.9 175.3 13.2C177.6 13.4 178.5 13.1 178.5 12C178.5 11 177.3 10.4 175 10.2C172.3 10 170.9 10.5 168.8 12.7Z"/>
</mask>
<path d="M168.8 12.7C166.1 15.4 166 15.4 166 13.2C166 11.9 165.4 11 164.5 11C163.2 11 163 13.2 163 24.5C163 35.8 163.2 38 164.5 38C165.7 38 166 36.6 166 31.1C166 21.9 166.8 18.5 169.6 15.4C171.5 13.5 172.8 12.9 175.3 13.2C177.6 13.4 178.5 13.1 178.5 12C178.5 11 177.3 10.4 175 10.2C172.3 10 170.9 10.5 168.8 12.7Z" fill="white"/>
<path d="M168.8 12.7C166.1 15.4 166 15.4 166 13.2C166 11.9 165.4 11 164.5 11C163.2 11 163 13.2 163 24.5C163 35.8 163.2 38 164.5 38C165.7 38 166 36.6 166 31.1C166 21.9 166.8 18.5 169.6 15.4C171.5 13.5 172.8 12.9 175.3 13.2C177.6 13.4 178.5 13.1 178.5 12C178.5 11 177.3 10.4 175 10.2C172.3 10 170.9 10.5 168.8 12.7Z" stroke="black" stroke-width="2" mask="url(#path-8-outside-8_103_24)"/>
<mask id="path-9-outside-9_103_24" maskUnits="userSpaceOnUse" x="181.198" y="8.68808" width="27" height="31" fill="black">
<rect fill="white" x="181.198" y="8.68808" width="27" height="31"/>
<path d="M186.3 13.4C182.9 16.5 182.6 17.3 182.3 23.1C182 28.3 182.3 30.1 184 32.8C186.6 37 192.1 39.4 196.8 38.5C200.6 37.8 206 33.1 206 30.6C206 28.3 203.2 28.6 202.5 31C201.5 34 196.4 36.3 192.3 35.5C188.8 34.9 185 30.4 185 26.7C185 25.2 186.2 25 196 25C208 25 207.7 25.2 206 18.8C204.5 13.5 199.9 10 194.4 10C190.8 10 189.3 10.6 186.3 13.4ZM199.7 14.5C201.9 16 204.3 21.4 203.3 22.4C202.3 23.4 186.2 23.1 185.5 22C184.7 20.7 187.6 15.3 189.7 14.1C192.3 12.6 197.2 12.8 199.7 14.5Z"/>
</mask>
<path d="M186.3 13.4C182.9 16.5 182.6 17.3 182.3 23.1C182 28.3 182.3 30.1 184 32.8C186.6 37 192.1 39.4 196.8 38.5C200.6 37.8 206 33.1 206 30.6C206 28.3 203.2 28.6 202.5 31C201.5 34 196.4 36.3 192.3 35.5C188.8 34.9 185 30.4 185 26.7C185 25.2 186.2 25 196 25C208 25 207.7 25.2 206 18.8C204.5 13.5 199.9 10 194.4 10C190.8 10 189.3 10.6 186.3 13.4ZM199.7 14.5C201.9 16 204.3 21.4 203.3 22.4C202.3 23.4 186.2 23.1 185.5 22C184.7 20.7 187.6 15.3 189.7 14.1C192.3 12.6 197.2 12.8 199.7 14.5Z" fill="white"/>
<path d="M186.3 13.4C182.9 16.5 182.6 17.3 182.3 23.1C182 28.3 182.3 30.1 184 32.8C186.6 37 192.1 39.4 196.8 38.5C200.6 37.8 206 33.1 206 30.6C206 28.3 203.2 28.6 202.5 31C201.5 34 196.4 36.3 192.3 35.5C188.8 34.9 185 30.4 185 26.7C185 25.2 186.2 25 196 25C208 25 207.7 25.2 206 18.8C204.5 13.5 199.9 10 194.4 10C190.8 10 189.3 10.6 186.3 13.4ZM199.7 14.5C201.9 16 204.3 21.4 203.3 22.4C202.3 23.4 186.2 23.1 185.5 22C184.7 20.7 187.6 15.3 189.7 14.1C192.3 12.6 197.2 12.8 199.7 14.5Z" stroke="black" stroke-width="2" mask="url(#path-9-outside-9_103_24)"/>
<mask id="path-10-outside-10_103_24" maskUnits="userSpaceOnUse" x="211.037" y="8.47562" width="26" height="31" fill="black">
<rect fill="white" x="211.037" y="8.47562" width="26" height="31"/>
<path d="M217.8 11.6C215.4 12.9 213 15.8 213 17.4C213 18.9 215.9 17.8 218 15.5C219.8 13.6 221.4 13 224.5 13C229.4 13 232 15.2 232 19.3C232 21.8 231.7 22 227.6 22C221 22 217.3 23 214.5 25.6C211.2 28.7 211.2 32.9 214.6 36.1C218 39.2 224.8 39.3 229 36.2C232.6 33.5 233 33.5 233 36C233 37.1 233.7 38 234.5 38C235.7 38 236 36.4 236 29.2C236 17.9 234.7 13.4 231 11.5C227.3 9.60001 221.3 9.60001 217.8 11.6ZM231.6 29.6C230.8 32.6 225.6 36 221.8 36C219.1 36 215 33 215 31.1C215 30.6 215.9 29.2 216.9 27.9C218.4 26 220.1 25.4 225.2 25C232 24.5 232.7 25 231.6 29.6Z"/>
</mask>
<path d="M217.8 11.6C215.4 12.9 213 15.8 213 17.4C213 18.9 215.9 17.8 218 15.5C219.8 13.6 221.4 13 224.5 13C229.4 13 232 15.2 232 19.3C232 21.8 231.7 22 227.6 22C221 22 217.3 23 214.5 25.6C211.2 28.7 211.2 32.9 214.6 36.1C218 39.2 224.8 39.3 229 36.2C232.6 33.5 233 33.5 233 36C233 37.1 233.7 38 234.5 38C235.7 38 236 36.4 236 29.2C236 17.9 234.7 13.4 231 11.5C227.3 9.60001 221.3 9.60001 217.8 11.6ZM231.6 29.6C230.8 32.6 225.6 36 221.8 36C219.1 36 215 33 215 31.1C215 30.6 215.9 29.2 216.9 27.9C218.4 26 220.1 25.4 225.2 25C232 24.5 232.7 25 231.6 29.6Z" fill="white"/>
<path d="M217.8 11.6C215.4 12.9 213 15.8 213 17.4C213 18.9 215.9 17.8 218 15.5C219.8 13.6 221.4 13 224.5 13C229.4 13 232 15.2 232 19.3C232 21.8 231.7 22 227.6 22C221 22 217.3 23 214.5 25.6C211.2 28.7 211.2 32.9 214.6 36.1C218 39.2 224.8 39.3 229 36.2C232.6 33.5 233 33.5 233 36C233 37.1 233.7 38 234.5 38C235.7 38 236 36.4 236 29.2C236 17.9 234.7 13.4 231 11.5C227.3 9.60001 221.3 9.60001 217.8 11.6ZM231.6 29.6C230.8 32.6 225.6 36 221.8 36C219.1 36 215 33 215 31.1C215 30.6 215.9 29.2 216.9 27.9C218.4 26 220.1 25.4 225.2 25C232 24.5 232.7 25 231.6 29.6Z" stroke="black" stroke-width="2" mask="url(#path-10-outside-10_103_24)"/>
<mask id="path-11-outside-11_103_24" maskUnits="userSpaceOnUse" x="242.115" y="8" width="40" height="31" fill="black">
<rect fill="white" x="242.115" y="8" width="40" height="31"/>
<path d="M249 12C247.4 13.6 247 13.7 247 12.5C247 11.7 246.1 11 245 11C243 11 243 11.5 243.2 24.2C243.5 35.9 243.7 37.5 245.3 37.8C246.8 38.1 247 37.1 247 27.8C247 18.7 247.3 17.1 249 15.2C251.1 13 255.4 12.3 257.7 13.8C259.9 15.2 261 20.1 261 29.1C261 36.3 261.3 38 262.5 38C263.7 38 264 36.2 264 27.5C264 15.8 265.3 13 270.8 13C276.6 13 277.4 14.7 277.8 26.9C278.1 35.8 278.5 38 279.7 38C280.9 38 281.1 36.1 280.8 26.4C280.5 15.1 280.4 14.8 277.7 12.4C274 9.2 268.7 9.2 265.6 12.3L263.3 14.6L260.6 12.3C257.2 9.4 251.8 9.2 249 12Z"/>
</mask>
<path d="M249 12C247.4 13.6 247 13.7 247 12.5C247 11.7 246.1 11 245 11C243 11 243 11.5 243.2 24.2C243.5 35.9 243.7 37.5 245.3 37.8C246.8 38.1 247 37.1 247 27.8C247 18.7 247.3 17.1 249 15.2C251.1 13 255.4 12.3 257.7 13.8C259.9 15.2 261 20.1 261 29.1C261 36.3 261.3 38 262.5 38C263.7 38 264 36.2 264 27.5C264 15.8 265.3 13 270.8 13C276.6 13 277.4 14.7 277.8 26.9C278.1 35.8 278.5 38 279.7 38C280.9 38 281.1 36.1 280.8 26.4C280.5 15.1 280.4 14.8 277.7 12.4C274 9.2 268.7 9.2 265.6 12.3L263.3 14.6L260.6 12.3C257.2 9.4 251.8 9.2 249 12Z" fill="white"/>
<path d="M249 12C247.4 13.6 247 13.7 247 12.5C247 11.7 246.1 11 245 11C243 11 243 11.5 243.2 24.2C243.5 35.9 243.7 37.5 245.3 37.8C246.8 38.1 247 37.1 247 27.8C247 18.7 247.3 17.1 249 15.2C251.1 13 255.4 12.3 257.7 13.8C259.9 15.2 261 20.1 261 29.1C261 36.3 261.3 38 262.5 38C263.7 38 264 36.2 264 27.5C264 15.8 265.3 13 270.8 13C276.6 13 277.4 14.7 277.8 26.9C278.1 35.8 278.5 38 279.7 38C280.9 38 281.1 36.1 280.8 26.4C280.5 15.1 280.4 14.8 277.7 12.4C274 9.2 268.7 9.2 265.6 12.3L263.3 14.6L260.6 12.3C257.2 9.4 251.8 9.2 249 12Z" stroke="black" stroke-width="2" mask="url(#path-11-outside-11_103_24)"/>
<mask id="path-12-outside-12_103_24" maskUnits="userSpaceOnUse" x="32.9939" y="9.64" width="25" height="31" fill="black">
<rect fill="white" x="32.9939" y="9.64" width="25" height="31"/>
<path d="M34.2 21.9C34.5 31.8 34.8 33.1 36.9 35.4C40.3 39 44.2 39.6 49 37.2C52.3 35.6 53 35.5 53 36.7C53 37.5 53.7 38 54.8 37.8C56.3 37.5 56.5 35.9 56.8 24.2C57 11.5 57 11 55 11C53.1 11 53 11.6 53 20.7C52.9 30.9 52.3 32.7 48.3 34.8C45.1 36.5 42.3 36.3 40 34C38.3 32.3 38 30.7 38 21.5C38 11.5 37.9 11 35.9 11C33.8 11 33.8 11.4 34.2 21.9Z"/>
</mask>
<path d="M34.2 21.9C34.5 31.8 34.8 33.1 36.9 35.4C40.3 39 44.2 39.6 49 37.2C52.3 35.6 53 35.5 53 36.7C53 37.5 53.7 38 54.8 37.8C56.3 37.5 56.5 35.9 56.8 24.2C57 11.5 57 11 55 11C53.1 11 53 11.6 53 20.7C52.9 30.9 52.3 32.7 48.3 34.8C45.1 36.5 42.3 36.3 40 34C38.3 32.3 38 30.7 38 21.5C38 11.5 37.9 11 35.9 11C33.8 11 33.8 11.4 34.2 21.9Z" fill="white"/>
<path d="M34.2 21.9C34.5 31.8 34.8 33.1 36.9 35.4C40.3 39 44.2 39.6 49 37.2C52.3 35.6 53 35.5 53 36.7C53 37.5 53.7 38 54.8 37.8C56.3 37.5 56.5 35.9 56.8 24.2C57 11.5 57 11 55 11C53.1 11 53 11.6 53 20.7C52.9 30.9 52.3 32.7 48.3 34.8C45.1 36.5 42.3 36.3 40 34C38.3 32.3 38 30.7 38 21.5C38 11.5 37.9 11 35.9 11C33.8 11 33.8 11.4 34.2 21.9Z" stroke="black" stroke-width="2" mask="url(#path-12-outside-12_103_24)"/>
</svg>
